<mxfile host="app.diagrams.net" modified="2020-04-03T19:00:42.793Z" agent="5.0 (Windows NT 10.0; Win64; x64) AppleWebKit/537.36 (KHTML, like Gecko) Chrome/80.0.3987.149 Safari/537.36" etag="FIf6txiRBG98NpG2fKMx" version="12.9.7" type="github">
  <diagram id="C5RBs43oDa-KdzZeNtuy" name="Page-1">
    <mxGraphModel dx="962" dy="531" grid="1" gridSize="10" guides="1" tooltips="1" connect="1" arrows="1" fold="1" page="1" pageScale="1" pageWidth="827" pageHeight="1169" math="0" shadow="0">
      <root>
        <mxCell id="WIyWlLk6GJQsqaUBKTNV-0" />
        <mxCell id="WIyWlLk6GJQsqaUBKTNV-1" parent="WIyWlLk6GJQsqaUBKTNV-0" />
        <mxCell id="kHBQBAvJ7uF7JaD16tmF-29" value="user" style="swimlane;fontStyle=0;childLayout=stackLayout;horizontal=1;startSize=26;horizontalStack=0;resizeParent=1;resizeParentMax=0;resizeLast=0;collapsible=1;marginBottom=0;align=center;fontSize=14;" vertex="1" parent="WIyWlLk6GJQsqaUBKTNV-1">
          <mxGeometry x="30" y="130" width="130" height="144" as="geometry" />
        </mxCell>
        <mxCell id="kHBQBAvJ7uF7JaD16tmF-30" value="id" style="shape=partialRectangle;top=0;left=0;right=0;bottom=1;align=left;verticalAlign=middle;fillColor=none;spacingLeft=34;spacingRight=4;overflow=hidden;rotatable=0;points=[[0,0.5],[1,0.5]];portConstraint=eastwest;dropTarget=0;fontStyle=5;fontSize=12;" vertex="1" parent="kHBQBAvJ7uF7JaD16tmF-29">
          <mxGeometry y="26" width="130" height="30" as="geometry" />
        </mxCell>
        <mxCell id="kHBQBAvJ7uF7JaD16tmF-31" value="PK" style="shape=partialRectangle;top=0;left=0;bottom=0;fillColor=none;align=left;verticalAlign=middle;spacingLeft=4;spacingRight=4;overflow=hidden;rotatable=0;points=[];portConstraint=eastwest;part=1;fontSize=12;" vertex="1" connectable="0" parent="kHBQBAvJ7uF7JaD16tmF-30">
          <mxGeometry width="30" height="30" as="geometry" />
        </mxCell>
        <mxCell id="kHBQBAvJ7uF7JaD16tmF-32" value="name" style="shape=partialRectangle;top=0;left=0;right=0;bottom=0;align=left;verticalAlign=top;fillColor=none;spacingLeft=34;spacingRight=4;overflow=hidden;rotatable=0;points=[[0,0.5],[1,0.5]];portConstraint=eastwest;dropTarget=0;fontSize=12;" vertex="1" parent="kHBQBAvJ7uF7JaD16tmF-29">
          <mxGeometry y="56" width="130" height="26" as="geometry" />
        </mxCell>
        <mxCell id="kHBQBAvJ7uF7JaD16tmF-33" value="" style="shape=partialRectangle;top=0;left=0;bottom=0;fillColor=none;align=left;verticalAlign=top;spacingLeft=4;spacingRight=4;overflow=hidden;rotatable=0;points=[];portConstraint=eastwest;part=1;fontSize=12;" vertex="1" connectable="0" parent="kHBQBAvJ7uF7JaD16tmF-32">
          <mxGeometry width="30" height="26" as="geometry" />
        </mxCell>
        <mxCell id="kHBQBAvJ7uF7JaD16tmF-34" value="password" style="shape=partialRectangle;top=0;left=0;right=0;bottom=0;align=left;verticalAlign=top;fillColor=none;spacingLeft=34;spacingRight=4;overflow=hidden;rotatable=0;points=[[0,0.5],[1,0.5]];portConstraint=eastwest;dropTarget=0;fontSize=12;" vertex="1" parent="kHBQBAvJ7uF7JaD16tmF-29">
          <mxGeometry y="82" width="130" height="26" as="geometry" />
        </mxCell>
        <mxCell id="kHBQBAvJ7uF7JaD16tmF-35" value="" style="shape=partialRectangle;top=0;left=0;bottom=0;fillColor=none;align=left;verticalAlign=top;spacingLeft=4;spacingRight=4;overflow=hidden;rotatable=0;points=[];portConstraint=eastwest;part=1;fontSize=12;" vertex="1" connectable="0" parent="kHBQBAvJ7uF7JaD16tmF-34">
          <mxGeometry width="30" height="26" as="geometry" />
        </mxCell>
        <mxCell id="kHBQBAvJ7uF7JaD16tmF-36" value="email" style="shape=partialRectangle;top=0;left=0;right=0;bottom=0;align=left;verticalAlign=top;fillColor=none;spacingLeft=34;spacingRight=4;overflow=hidden;rotatable=0;points=[[0,0.5],[1,0.5]];portConstraint=eastwest;dropTarget=0;fontSize=12;" vertex="1" parent="kHBQBAvJ7uF7JaD16tmF-29">
          <mxGeometry y="108" width="130" height="26" as="geometry" />
        </mxCell>
        <mxCell id="kHBQBAvJ7uF7JaD16tmF-37" value="" style="shape=partialRectangle;top=0;left=0;bottom=0;fillColor=none;align=left;verticalAlign=top;spacingLeft=4;spacingRight=4;overflow=hidden;rotatable=0;points=[];portConstraint=eastwest;part=1;fontSize=12;" vertex="1" connectable="0" parent="kHBQBAvJ7uF7JaD16tmF-36">
          <mxGeometry width="30" height="26" as="geometry" />
        </mxCell>
        <mxCell id="kHBQBAvJ7uF7JaD16tmF-38" value="" style="shape=partialRectangle;top=0;left=0;right=0;bottom=0;align=left;verticalAlign=top;fillColor=none;spacingLeft=34;spacingRight=4;overflow=hidden;rotatable=0;points=[[0,0.5],[1,0.5]];portConstraint=eastwest;dropTarget=0;fontSize=12;" vertex="1" parent="kHBQBAvJ7uF7JaD16tmF-29">
          <mxGeometry y="134" width="130" height="10" as="geometry" />
        </mxCell>
        <mxCell id="kHBQBAvJ7uF7JaD16tmF-39" value="" style="shape=partialRectangle;top=0;left=0;bottom=0;fillColor=none;align=left;verticalAlign=top;spacingLeft=4;spacingRight=4;overflow=hidden;rotatable=0;points=[];portConstraint=eastwest;part=1;fontSize=12;" vertex="1" connectable="0" parent="kHBQBAvJ7uF7JaD16tmF-38">
          <mxGeometry width="30" height="10" as="geometry" />
        </mxCell>
        <mxCell id="kHBQBAvJ7uF7JaD16tmF-40" value="org" style="swimlane;fontStyle=0;childLayout=stackLayout;horizontal=1;startSize=26;horizontalStack=0;resizeParent=1;resizeParentMax=0;resizeLast=0;collapsible=1;marginBottom=0;align=center;fontSize=14;" vertex="1" parent="WIyWlLk6GJQsqaUBKTNV-1">
          <mxGeometry x="480" y="130" width="150" height="144" as="geometry" />
        </mxCell>
        <mxCell id="kHBQBAvJ7uF7JaD16tmF-41" value="id" style="shape=partialRectangle;top=0;left=0;right=0;bottom=1;align=left;verticalAlign=middle;fillColor=none;spacingLeft=34;spacingRight=4;overflow=hidden;rotatable=0;points=[[0,0.5],[1,0.5]];portConstraint=eastwest;dropTarget=0;fontStyle=5;fontSize=12;" vertex="1" parent="kHBQBAvJ7uF7JaD16tmF-40">
          <mxGeometry y="26" width="150" height="30" as="geometry" />
        </mxCell>
        <mxCell id="kHBQBAvJ7uF7JaD16tmF-42" value="PK" style="shape=partialRectangle;top=0;left=0;bottom=0;fillColor=none;align=left;verticalAlign=middle;spacingLeft=4;spacingRight=4;overflow=hidden;rotatable=0;points=[];portConstraint=eastwest;part=1;fontSize=12;" vertex="1" connectable="0" parent="kHBQBAvJ7uF7JaD16tmF-41">
          <mxGeometry width="30" height="30" as="geometry" />
        </mxCell>
        <mxCell id="kHBQBAvJ7uF7JaD16tmF-43" value="name" style="shape=partialRectangle;top=0;left=0;right=0;bottom=0;align=left;verticalAlign=top;fillColor=none;spacingLeft=34;spacingRight=4;overflow=hidden;rotatable=0;points=[[0,0.5],[1,0.5]];portConstraint=eastwest;dropTarget=0;fontSize=12;" vertex="1" parent="kHBQBAvJ7uF7JaD16tmF-40">
          <mxGeometry y="56" width="150" height="26" as="geometry" />
        </mxCell>
        <mxCell id="kHBQBAvJ7uF7JaD16tmF-44" value="" style="shape=partialRectangle;top=0;left=0;bottom=0;fillColor=none;align=left;verticalAlign=top;spacingLeft=4;spacingRight=4;overflow=hidden;rotatable=0;points=[];portConstraint=eastwest;part=1;fontSize=12;" vertex="1" connectable="0" parent="kHBQBAvJ7uF7JaD16tmF-43">
          <mxGeometry width="30" height="26" as="geometry" />
        </mxCell>
        <mxCell id="kHBQBAvJ7uF7JaD16tmF-45" value="password" style="shape=partialRectangle;top=0;left=0;right=0;bottom=0;align=left;verticalAlign=top;fillColor=none;spacingLeft=34;spacingRight=4;overflow=hidden;rotatable=0;points=[[0,0.5],[1,0.5]];portConstraint=eastwest;dropTarget=0;fontSize=12;" vertex="1" parent="kHBQBAvJ7uF7JaD16tmF-40">
          <mxGeometry y="82" width="150" height="26" as="geometry" />
        </mxCell>
        <mxCell id="kHBQBAvJ7uF7JaD16tmF-46" value="" style="shape=partialRectangle;top=0;left=0;bottom=0;fillColor=none;align=left;verticalAlign=top;spacingLeft=4;spacingRight=4;overflow=hidden;rotatable=0;points=[];portConstraint=eastwest;part=1;fontSize=12;" vertex="1" connectable="0" parent="kHBQBAvJ7uF7JaD16tmF-45">
          <mxGeometry width="30" height="26" as="geometry" />
        </mxCell>
        <mxCell id="kHBQBAvJ7uF7JaD16tmF-47" value="email" style="shape=partialRectangle;top=0;left=0;right=0;bottom=0;align=left;verticalAlign=top;fillColor=none;spacingLeft=34;spacingRight=4;overflow=hidden;rotatable=0;points=[[0,0.5],[1,0.5]];portConstraint=eastwest;dropTarget=0;fontSize=12;" vertex="1" parent="kHBQBAvJ7uF7JaD16tmF-40">
          <mxGeometry y="108" width="150" height="26" as="geometry" />
        </mxCell>
        <mxCell id="kHBQBAvJ7uF7JaD16tmF-48" value="" style="shape=partialRectangle;top=0;left=0;bottom=0;fillColor=none;align=left;verticalAlign=top;spacingLeft=4;spacingRight=4;overflow=hidden;rotatable=0;points=[];portConstraint=eastwest;part=1;fontSize=12;" vertex="1" connectable="0" parent="kHBQBAvJ7uF7JaD16tmF-47">
          <mxGeometry width="30" height="26" as="geometry" />
        </mxCell>
        <mxCell id="kHBQBAvJ7uF7JaD16tmF-49" value="" style="shape=partialRectangle;top=0;left=0;right=0;bottom=0;align=left;verticalAlign=top;fillColor=none;spacingLeft=34;spacingRight=4;overflow=hidden;rotatable=0;points=[[0,0.5],[1,0.5]];portConstraint=eastwest;dropTarget=0;fontSize=12;" vertex="1" parent="kHBQBAvJ7uF7JaD16tmF-40">
          <mxGeometry y="134" width="150" height="10" as="geometry" />
        </mxCell>
        <mxCell id="kHBQBAvJ7uF7JaD16tmF-50" value="" style="shape=partialRectangle;top=0;left=0;bottom=0;fillColor=none;align=left;verticalAlign=top;spacingLeft=4;spacingRight=4;overflow=hidden;rotatable=0;points=[];portConstraint=eastwest;part=1;fontSize=12;" vertex="1" connectable="0" parent="kHBQBAvJ7uF7JaD16tmF-49">
          <mxGeometry width="30" height="10" as="geometry" />
        </mxCell>
        <mxCell id="kHBQBAvJ7uF7JaD16tmF-0" value="membership" style="swimlane;fontStyle=0;childLayout=stackLayout;horizontal=1;startSize=26;horizontalStack=0;resizeParent=1;resizeParentMax=0;resizeLast=0;collapsible=1;marginBottom=0;align=center;fontSize=14;" vertex="1" parent="WIyWlLk6GJQsqaUBKTNV-1">
          <mxGeometry x="260" y="130" width="140" height="144" as="geometry" />
        </mxCell>
        <mxCell id="kHBQBAvJ7uF7JaD16tmF-1" value="id" style="shape=partialRectangle;top=0;left=0;right=0;bottom=1;align=left;verticalAlign=middle;fillColor=none;spacingLeft=34;spacingRight=4;overflow=hidden;rotatable=0;points=[[0,0.5],[1,0.5]];portConstraint=eastwest;dropTarget=0;fontStyle=5;fontSize=12;" vertex="1" parent="kHBQBAvJ7uF7JaD16tmF-0">
          <mxGeometry y="26" width="140" height="30" as="geometry" />
        </mxCell>
        <mxCell id="kHBQBAvJ7uF7JaD16tmF-2" value="PK" style="shape=partialRectangle;top=0;left=0;bottom=0;fillColor=none;align=left;verticalAlign=middle;spacingLeft=4;spacingRight=4;overflow=hidden;rotatable=0;points=[];portConstraint=eastwest;part=1;fontSize=12;" vertex="1" connectable="0" parent="kHBQBAvJ7uF7JaD16tmF-1">
          <mxGeometry width="30" height="30" as="geometry" />
        </mxCell>
        <mxCell id="kHBQBAvJ7uF7JaD16tmF-3" value="user_id" style="shape=partialRectangle;top=0;left=0;right=0;bottom=0;align=left;verticalAlign=top;fillColor=none;spacingLeft=34;spacingRight=4;overflow=hidden;rotatable=0;points=[[0,0.5],[1,0.5]];portConstraint=eastwest;dropTarget=0;fontSize=12;" vertex="1" parent="kHBQBAvJ7uF7JaD16tmF-0">
          <mxGeometry y="56" width="140" height="26" as="geometry" />
        </mxCell>
        <mxCell id="kHBQBAvJ7uF7JaD16tmF-4" value="FK" style="shape=partialRectangle;top=0;left=0;bottom=0;fillColor=none;align=left;verticalAlign=top;spacingLeft=4;spacingRight=4;overflow=hidden;rotatable=0;points=[];portConstraint=eastwest;part=1;fontSize=12;" vertex="1" connectable="0" parent="kHBQBAvJ7uF7JaD16tmF-3">
          <mxGeometry width="30" height="26" as="geometry" />
        </mxCell>
        <mxCell id="kHBQBAvJ7uF7JaD16tmF-5" value="org_id" style="shape=partialRectangle;top=0;left=0;right=0;bottom=0;align=left;verticalAlign=top;fillColor=none;spacingLeft=34;spacingRight=4;overflow=hidden;rotatable=0;points=[[0,0.5],[1,0.5]];portConstraint=eastwest;dropTarget=0;fontSize=12;" vertex="1" parent="kHBQBAvJ7uF7JaD16tmF-0">
          <mxGeometry y="82" width="140" height="26" as="geometry" />
        </mxCell>
        <mxCell id="kHBQBAvJ7uF7JaD16tmF-6" value="FK" style="shape=partialRectangle;top=0;left=0;bottom=0;fillColor=none;align=left;verticalAlign=top;spacingLeft=4;spacingRight=4;overflow=hidden;rotatable=0;points=[];portConstraint=eastwest;part=1;fontSize=12;" vertex="1" connectable="0" parent="kHBQBAvJ7uF7JaD16tmF-5">
          <mxGeometry width="30" height="26" as="geometry" />
        </mxCell>
        <mxCell id="kHBQBAvJ7uF7JaD16tmF-7" value="is_active" style="shape=partialRectangle;top=0;left=0;right=0;bottom=0;align=left;verticalAlign=top;fillColor=none;spacingLeft=34;spacingRight=4;overflow=hidden;rotatable=0;points=[[0,0.5],[1,0.5]];portConstraint=eastwest;dropTarget=0;fontSize=12;" vertex="1" parent="kHBQBAvJ7uF7JaD16tmF-0">
          <mxGeometry y="108" width="140" height="26" as="geometry" />
        </mxCell>
        <mxCell id="kHBQBAvJ7uF7JaD16tmF-8" value="" style="shape=partialRectangle;top=0;left=0;bottom=0;fillColor=none;align=left;verticalAlign=top;spacingLeft=4;spacingRight=4;overflow=hidden;rotatable=0;points=[];portConstraint=eastwest;part=1;fontSize=12;" vertex="1" connectable="0" parent="kHBQBAvJ7uF7JaD16tmF-7">
          <mxGeometry width="30" height="26" as="geometry" />
        </mxCell>
        <mxCell id="kHBQBAvJ7uF7JaD16tmF-9" value="" style="shape=partialRectangle;top=0;left=0;right=0;bottom=0;align=left;verticalAlign=top;fillColor=none;spacingLeft=34;spacingRight=4;overflow=hidden;rotatable=0;points=[[0,0.5],[1,0.5]];portConstraint=eastwest;dropTarget=0;fontSize=12;" vertex="1" parent="kHBQBAvJ7uF7JaD16tmF-0">
          <mxGeometry y="134" width="140" height="10" as="geometry" />
        </mxCell>
        <mxCell id="kHBQBAvJ7uF7JaD16tmF-10" value="" style="shape=partialRectangle;top=0;left=0;bottom=0;fillColor=none;align=left;verticalAlign=top;spacingLeft=4;spacingRight=4;overflow=hidden;rotatable=0;points=[];portConstraint=eastwest;part=1;fontSize=12;" vertex="1" connectable="0" parent="kHBQBAvJ7uF7JaD16tmF-9">
          <mxGeometry width="30" height="10" as="geometry" />
        </mxCell>
        <mxCell id="kHBQBAvJ7uF7JaD16tmF-64" style="edgeStyle=orthogonalEdgeStyle;rounded=0;orthogonalLoop=1;jettySize=auto;html=1;entryX=0;entryY=0.5;entryDx=0;entryDy=0;fontSize=14;endArrow=ERmany;endFill=0;" edge="1" parent="WIyWlLk6GJQsqaUBKTNV-1" source="kHBQBAvJ7uF7JaD16tmF-30" target="kHBQBAvJ7uF7JaD16tmF-3">
          <mxGeometry relative="1" as="geometry" />
        </mxCell>
        <mxCell id="kHBQBAvJ7uF7JaD16tmF-67" style="edgeStyle=orthogonalEdgeStyle;rounded=0;orthogonalLoop=1;jettySize=auto;html=1;entryX=1;entryY=0.5;entryDx=0;entryDy=0;endArrow=ERmany;endFill=0;fontSize=14;" edge="1" parent="WIyWlLk6GJQsqaUBKTNV-1" source="kHBQBAvJ7uF7JaD16tmF-41" target="kHBQBAvJ7uF7JaD16tmF-5">
          <mxGeometry relative="1" as="geometry" />
        </mxCell>
        <mxCell id="kHBQBAvJ7uF7JaD16tmF-18" value="pwd" style="swimlane;fontStyle=0;childLayout=stackLayout;horizontal=1;startSize=26;horizontalStack=0;resizeParent=1;resizeParentMax=0;resizeLast=0;collapsible=1;marginBottom=0;align=center;fontSize=14;" vertex="1" parent="WIyWlLk6GJQsqaUBKTNV-1">
          <mxGeometry x="480" y="320" width="150" height="196" as="geometry" />
        </mxCell>
        <mxCell id="kHBQBAvJ7uF7JaD16tmF-19" value="id" style="shape=partialRectangle;top=0;left=0;right=0;bottom=1;align=left;verticalAlign=middle;fillColor=none;spacingLeft=34;spacingRight=4;overflow=hidden;rotatable=0;points=[[0,0.5],[1,0.5]];portConstraint=eastwest;dropTarget=0;fontStyle=5;fontSize=12;" vertex="1" parent="kHBQBAvJ7uF7JaD16tmF-18">
          <mxGeometry y="26" width="150" height="30" as="geometry" />
        </mxCell>
        <mxCell id="kHBQBAvJ7uF7JaD16tmF-20" value="PK" style="shape=partialRectangle;top=0;left=0;bottom=0;fillColor=none;align=left;verticalAlign=middle;spacingLeft=4;spacingRight=4;overflow=hidden;rotatable=0;points=[];portConstraint=eastwest;part=1;fontSize=12;" vertex="1" connectable="0" parent="kHBQBAvJ7uF7JaD16tmF-19">
          <mxGeometry width="30" height="30" as="geometry" />
        </mxCell>
        <mxCell id="kHBQBAvJ7uF7JaD16tmF-21" value="org_id" style="shape=partialRectangle;top=0;left=0;right=0;bottom=0;align=left;verticalAlign=top;fillColor=none;spacingLeft=34;spacingRight=4;overflow=hidden;rotatable=0;points=[[0,0.5],[1,0.5]];portConstraint=eastwest;dropTarget=0;fontSize=12;" vertex="1" parent="kHBQBAvJ7uF7JaD16tmF-18">
          <mxGeometry y="56" width="150" height="26" as="geometry" />
        </mxCell>
        <mxCell id="kHBQBAvJ7uF7JaD16tmF-22" value="FK" style="shape=partialRectangle;top=0;left=0;bottom=0;fillColor=none;align=left;verticalAlign=top;spacingLeft=4;spacingRight=4;overflow=hidden;rotatable=0;points=[];portConstraint=eastwest;part=1;fontSize=12;" vertex="1" connectable="0" parent="kHBQBAvJ7uF7JaD16tmF-21">
          <mxGeometry width="30" height="26" as="geometry" />
        </mxCell>
        <mxCell id="kHBQBAvJ7uF7JaD16tmF-23" value="hash" style="shape=partialRectangle;top=0;left=0;right=0;bottom=0;align=left;verticalAlign=top;fillColor=none;spacingLeft=34;spacingRight=4;overflow=hidden;rotatable=0;points=[[0,0.5],[1,0.5]];portConstraint=eastwest;dropTarget=0;fontSize=12;" vertex="1" parent="kHBQBAvJ7uF7JaD16tmF-18">
          <mxGeometry y="82" width="150" height="26" as="geometry" />
        </mxCell>
        <mxCell id="kHBQBAvJ7uF7JaD16tmF-24" value="" style="shape=partialRectangle;top=0;left=0;bottom=0;fillColor=none;align=left;verticalAlign=top;spacingLeft=4;spacingRight=4;overflow=hidden;rotatable=0;points=[];portConstraint=eastwest;part=1;fontSize=12;" vertex="1" connectable="0" parent="kHBQBAvJ7uF7JaD16tmF-23">
          <mxGeometry width="30" height="26" as="geometry" />
        </mxCell>
        <mxCell id="kHBQBAvJ7uF7JaD16tmF-25" value="secret_key" style="shape=partialRectangle;top=0;left=0;right=0;bottom=0;align=left;verticalAlign=top;fillColor=none;spacingLeft=34;spacingRight=4;overflow=hidden;rotatable=0;points=[[0,0.5],[1,0.5]];portConstraint=eastwest;dropTarget=0;fontSize=12;" vertex="1" parent="kHBQBAvJ7uF7JaD16tmF-18">
          <mxGeometry y="108" width="150" height="26" as="geometry" />
        </mxCell>
        <mxCell id="kHBQBAvJ7uF7JaD16tmF-26" value="" style="shape=partialRectangle;top=0;left=0;bottom=0;fillColor=none;align=left;verticalAlign=top;spacingLeft=4;spacingRight=4;overflow=hidden;rotatable=0;points=[];portConstraint=eastwest;part=1;fontSize=12;" vertex="1" connectable="0" parent="kHBQBAvJ7uF7JaD16tmF-25">
          <mxGeometry width="30" height="26" as="geometry" />
        </mxCell>
        <mxCell id="kHBQBAvJ7uF7JaD16tmF-68" value="category" style="shape=partialRectangle;top=0;left=0;right=0;bottom=0;align=left;verticalAlign=top;fillColor=none;spacingLeft=34;spacingRight=4;overflow=hidden;rotatable=0;points=[[0,0.5],[1,0.5]];portConstraint=eastwest;dropTarget=0;fontSize=12;" vertex="1" parent="kHBQBAvJ7uF7JaD16tmF-18">
          <mxGeometry y="134" width="150" height="26" as="geometry" />
        </mxCell>
        <mxCell id="kHBQBAvJ7uF7JaD16tmF-69" value="" style="shape=partialRectangle;top=0;left=0;bottom=0;fillColor=none;align=left;verticalAlign=top;spacingLeft=4;spacingRight=4;overflow=hidden;rotatable=0;points=[];portConstraint=eastwest;part=1;fontSize=12;" vertex="1" connectable="0" parent="kHBQBAvJ7uF7JaD16tmF-68">
          <mxGeometry width="30" height="26" as="geometry" />
        </mxCell>
        <mxCell id="kHBQBAvJ7uF7JaD16tmF-70" value="times_used" style="shape=partialRectangle;top=0;left=0;right=0;bottom=0;align=left;verticalAlign=top;fillColor=none;spacingLeft=34;spacingRight=4;overflow=hidden;rotatable=0;points=[[0,0.5],[1,0.5]];portConstraint=eastwest;dropTarget=0;fontSize=12;" vertex="1" parent="kHBQBAvJ7uF7JaD16tmF-18">
          <mxGeometry y="160" width="150" height="26" as="geometry" />
        </mxCell>
        <mxCell id="kHBQBAvJ7uF7JaD16tmF-71" value="" style="shape=partialRectangle;top=0;left=0;bottom=0;fillColor=none;align=left;verticalAlign=top;spacingLeft=4;spacingRight=4;overflow=hidden;rotatable=0;points=[];portConstraint=eastwest;part=1;fontSize=12;" vertex="1" connectable="0" parent="kHBQBAvJ7uF7JaD16tmF-70">
          <mxGeometry width="30" height="26" as="geometry" />
        </mxCell>
        <mxCell id="kHBQBAvJ7uF7JaD16tmF-27" value="" style="shape=partialRectangle;top=0;left=0;right=0;bottom=0;align=left;verticalAlign=top;fillColor=none;spacingLeft=34;spacingRight=4;overflow=hidden;rotatable=0;points=[[0,0.5],[1,0.5]];portConstraint=eastwest;dropTarget=0;fontSize=12;" vertex="1" parent="kHBQBAvJ7uF7JaD16tmF-18">
          <mxGeometry y="186" width="150" height="10" as="geometry" />
        </mxCell>
        <mxCell id="kHBQBAvJ7uF7JaD16tmF-28" value="" style="shape=partialRectangle;top=0;left=0;bottom=0;fillColor=none;align=left;verticalAlign=top;spacingLeft=4;spacingRight=4;overflow=hidden;rotatable=0;points=[];portConstraint=eastwest;part=1;fontSize=12;" vertex="1" connectable="0" parent="kHBQBAvJ7uF7JaD16tmF-27">
          <mxGeometry width="30" height="10" as="geometry" />
        </mxCell>
        <mxCell id="kHBQBAvJ7uF7JaD16tmF-73" style="edgeStyle=orthogonalEdgeStyle;rounded=0;orthogonalLoop=1;jettySize=auto;html=1;endArrow=none;endFill=0;fontSize=14;entryX=1;entryY=0.5;entryDx=0;entryDy=0;startArrow=ERmany;startFill=0;" edge="1" parent="WIyWlLk6GJQsqaUBKTNV-1" source="kHBQBAvJ7uF7JaD16tmF-21" target="kHBQBAvJ7uF7JaD16tmF-41">
          <mxGeometry relative="1" as="geometry">
            <mxPoint x="670" y="70" as="targetPoint" />
            <Array as="points">
              <mxPoint x="670" y="389" />
              <mxPoint x="670" y="171" />
            </Array>
          </mxGeometry>
        </mxCell>
      </root>
    </mxGraphModel>
  </diagram>
</mxfile>
